<svg version="1.1" width="320" height="420" viewBox="0 0 320 420" xmlns="http://www.w3.org/2000/svg">
    <svg x="0" y="0" version="1.1" width="320" height="220" xmlns="http://www.w3.org/2000/svg">
        <defs>
            <mask id="hole">
                <rect x="100" y="100" width="220" height="120" fill="white"/>
                <circle cx="260" cy="180" r="10" fill="black"/>
            </mask>
        </defs>
        
        <path stroke="none" fill="currentColor" d="M110,10 v100 h-100 a100,120 0 0 0 100,-100 z" />
        <path stroke="none" fill="currentColor" mask="url(#hole)" d="M110,110 h80 a120,100 0 0 1 120,100 h-80 a120,100 0 0 1 -120,-100 v-100 z" />
    </svg>
    <svg x="0" y="97" version="1.1" width="320" height="220" xmlns="http://www.w3.org/2000/svg">
        <defs>
            <mask id="hole">
                <rect x="100" y="100" width="220" height="120" fill="white"/>
                <circle cx="260" cy="180" r="10" fill="black"/>
            </mask>
        </defs>
        
        <path stroke="none" fill="currentColor" d="M110,10 v100 h-100 a100,120 0 0 0 100,-100 z" />
        <path stroke="none" fill="currentColor" mask="url(#hole)" d="M110,110 h80 a120,100 0 0 1 120,100 h-80 a120,100 0 0 1 -120,-100 v-100 z" />
    </svg>
    <svg x="0" y="194" version="1.1" width="320" height="220" xmlns="http://www.w3.org/2000/svg">
        <defs>
            <mask id="hole">
                <rect x="100" y="100" width="220" height="120" fill="white"/>
                <circle cx="260" cy="180" r="10" fill="black"/>
            </mask>
        </defs>
        
        <path stroke="none" fill="currentColor" d="M110,10 v100 h-100 a100,120 0 0 0 100,-100 z" />
        <path stroke="none" fill="currentColor" mask="url(#hole)" d="M110,110 h80 a120,100 0 0 1 120,100 h-80 a120,100 0 0 1 -120,-100 v-100 z" />
    </svg>
</svg>