<svg version="1.1" width="300" height="300" viewBox="0 0 300 300" xmlns="http://www.w3.org/2000/svg">
    <path stroke="none" fill="currentColor" d="M100,0 v100 h-100 a100,100 0 0 0 100,-100 z" />
    <path stroke="none" fill="currentColor" d="M100,100 v100 h-100 a100,100 0 0 0 100,-100 z" />
    <path stroke="none" fill="currentColor" d="M100,200 v100 h-100 a100,100 0 0 0 100,-100 z" />

    <path stroke="none" fill="currentColor" d="M200,0 v100 h-100 a100,100 0 0 0 100,-100 z" />
    <path stroke="none" fill="currentColor" d="M200,100 v100 h-100 a100,100 0 0 0 100,-100 z" />
    <path stroke="none" fill="currentColor" d="M200,200 v100 h-100 a100,100 0 0 0 100,-100 z" />

    <path stroke="none" fill="currentColor" d="M300,0 v100 h-100 a100,100 0 0 0 100,-100 z" />
    <path stroke="none" fill="currentColor" d="M300,100 v100 h-100 a100,100 0 0 0 100,-100 z" />
    <path stroke="none" fill="currentColor" d="M300,200 v100 h-100 a100,100 0 0 0 100,-100 z" />
</svg>